<?xml version="1.0" encoding="UTF-8"?>
<svg id="Zicy_favicon" data-name="Zicy favicon" xmlns="http://www.w3.org/2000/svg" viewBox="0 0 205.59 362.2">
  <defs>
    <style>
      .cls-1 { fill: #588bc8; }
      .cls-2 { fill: #aa5ea4; }
      .cls-3 {
        fill: none;
        stroke: #231f20;
        stroke-miterlimit: 10;
        stroke-width: 2.95px;
      }
      .cls-4 { fill: #bd83b9; }
      .cls-5 { fill: #7064ab; }
      .cls-6 { fill: #80c4e9; }
      .cls-7 { fill: #cfebf1; }
    </style>
  </defs>
  <polygon class="cls-7" points="108.69 1.47 114.63 56.6 192.89 1.6 108.69 1.47"/>
  <polygon class="cls-6" points="109.74 1.47 2.25 194.6 55.34 170.5 114.63 56.6 109.74 1.47"/>
  <polygon class="cls-5" points="119.76 139.68 55.34 170.5 114.63 56.6 194.06 .69 119.76 139.68"/>
  <polygon class="cls-7" points="202.41 138.91 118.9 176.23 55.34 170.5 122.92 138.21 202.41 138.91"/>
  <polygon class="cls-1" points="16.85 355.28 120.21 175.74 55.34 170.5 1.57 194.91 79.58 194.91 18.04 355.94 16.85 355.28"/>
  <polygon class="cls-4" points="16.85 357.33 201.53 141.81 202.41 138.39 120.21 175.74 16.33 356 16.85 357.33"/>
  <polygon class="cls-2" points="120.35 175.74 80.1 194.08 18.19 355.94 18.19 355.94 18.19 355.94 120.35 175.74"/>
  <polygon class="cls-3" points="108.69 1.47 193.58 1.47 121.84 138.39 202.41 138.39 18.66 354.71 79.58 194.91 2.49 194.91 108.69 1.47"/>
</svg>
