<?xml version="1.0" encoding="UTF-8"?>
<svg id="Zicy_logo_white" data-name="Zicy logo (white)" xmlns="http://www.w3.org/2000/svg" viewBox="0 0 599.9 320">
  <defs>
    <style>
      .cls-1 { fill: #588bc8; }
      .cls-2 { fill: #fff; }
      .cls-3 { fill: #aa5ea4; }
      .cls-4 { fill: #bd83b9; }
      .cls-5 { fill: #7064ab; }
      .cls-6 { fill: #80c4e9; }
      .cls-7 { fill: #cfebf1; }
      .cls-8 {
        fill: #a7a8ab;
        font-family: Aileron-Italic, Aileron, Georgia, serif;
        font-size: 43.38px;
        font-style: italic;
      }
      .cls-9 {
        fill: none;
        stroke: #fff;
        stroke-miterlimit: 10;
        stroke-width: 2.95px;
      }
    </style>
  </defs>
  <text class="cls-8" transform="translate(167.01 294.1)"><tspan x="0" y="0">{ pronounced ~ Ziki }</tspan></text>
  <g>
    <g>
      <path class="cls-2" d="M204.02,174.59l59.69-89.74h-75.87l16.17-32.08h107.41v22.94l-59.69,90.35h75.32v32.08h-123.04v-23.55Z"/>
      <g>
        <path class="cls-2" d="M377.38,64.34c0,11.17-8.53,19.09-19.9,19.09s-19.9-7.92-19.9-19.09,8.32-19.29,19.9-19.29,19.9,8.12,19.9,19.29ZM338.6,93.37h37.56v104.77h-37.56v-104.77Z"/>
        <path class="cls-2" d="M476.46,129.71c-5.89-4.06-14.01-6.5-21.93-6.5-13.4,0-23.76,8.12-23.76,22.54s10.15,22.54,23.76,22.54c8.12,0,16.24-2.44,22.13-6.7v33.3c-7.31,3.65-18.48,5.48-28.02,5.48-32.28,0-56.04-23.35-56.04-54.62s23.76-54.82,56.04-54.82c9.54,0,20.71,2.03,27.82,5.69v33.09Z"/>
        <path class="cls-2" d="M487.42,206.46c5.48,2.23,11.37,3.25,15.84,3.25,10.96,0,17.06-5.08,20.1-16.85l-40.41-99.49h38.37l20.91,63.55,20.1-63.55h37.56l-42.84,108.02c-10.76,27.41-24.77,39.8-48.73,39.8-6.9,0-15.23-1.42-20.91-4.06v-30.66Z"/>
      </g>
      <polygon class="cls-2" points="204.02 174.59 187.84 198.14 204.02 198.14 204.02 174.59"/>
      <polygon class="cls-2" points="311.42 75.71 327.05 52.76 311.42 52.76 311.42 75.71"/>
    </g>
    <polygon class="cls-7" points="89.89 1.47 94.78 46.84 159.18 1.58 89.89 1.47"/>
    <polygon class="cls-6" points="90.75 1.47 2.29 160.41 45.99 140.57 94.78 46.84 90.75 1.47"/>
    <polygon class="cls-5" points="98.99 115.21 45.99 140.57 94.78 46.84 160.14 .83 98.99 115.21"/>
    <polygon class="cls-7" points="167.01 114.57 98.29 145.29 45.99 140.57 101.59 114 167.01 114.57"/>
    <polygon class="cls-1" points="14.31 292.64 99.36 144.89 45.99 140.57 1.73 160.66 65.93 160.66 15.29 293.18 14.31 292.64"/>
    <polygon class="cls-4" points="14.31 294.33 166.29 116.96 167.01 114.15 99.36 144.89 13.88 293.23 14.31 294.33"/>
    <polygon class="cls-3" points="99.49 144.89 66.36 159.98 15.41 293.18 15.41 293.18 15.41 293.18 99.49 144.89"/>
    <polygon class="cls-9" points="89.89 1.47 159.75 1.47 100.71 114.15 167.01 114.15 15.8 292.17 65.93 160.66 2.49 160.66 89.89 1.47"/>
  </g>
</svg>
